<svg xmlns="http://www.w3.org/2000/svg" viewBox="0 0 824 901" width="824" height="901" shape-rendering="geometricPrecision">
<g fill="#FFFFFF" fill-rule="evenodd">
<path d="M 412 751 L 407 764 L 398 774 L 386 781 L 379 782 L 388 784 L 399 791 L 408 802 L 412 814 L 413 807 L 419 797 L 433 785 L 444 782 L 428 776 L 416 763 Z"/>
<path d="M 526 401 L 448 437 L 508 425 Z"/>
<path d="M 298 401 L 315 425 L 375 437 Z"/>
<path d="M 116 0 L 101 75 L 103 117 L 116 152 L 123 197 L 135 226 L 151 249 L 169 267 L 184 278 L 173 307 L 167 333 L 146 355 L 173 508 L 1 570 L 64 603 L 116 635 L 169 672 L 218 710 L 303 785 L 351 833 L 412 900 L 502 803 L 554 754 L 608 708 L 660 668 L 723 625 L 823 569 L 651 508 L 677 355 L 656 332 L 649 302 L 636 270 L 606 223 L 586 201 L 564 182 L 516 152 L 510 136 L 493 105 L 466 74 L 449 62 L 424 51 L 405 47 L 374 47 L 349 52 L 319 63 L 292 76 L 239 107 L 217 111 L 198 109 L 173 99 L 152 81 L 134 50 Z M 122 68 L 135 90 L 151 107 L 174 121 L 203 129 L 227 129 L 248 124 L 323 82 L 368 67 L 385 65 L 410 67 L 429 73 L 449 85 L 465 100 L 478 117 L 495 149 L 501 167 L 527 180 L 551 196 L 595 240 L 610 262 L 622 285 L 634 318 L 639 342 L 657 361 L 629 521 L 775 573 L 719 605 L 672 636 L 590 698 L 497 781 L 412 871 L 369 824 L 313 768 L 236 700 L 153 637 L 98 601 L 49 573 L 195 521 L 167 361 L 185 341 L 191 313 L 201 286 L 222 249 L 256 210 L 289 185 L 263 194 L 238 210 L 218 229 L 196 262 L 191 260 L 162 232 L 144 200 L 138 178 L 139 174 L 157 187 L 181 198 L 166 186 L 149 168 L 129 136 L 120 105 L 119 85 Z"/>
</g>
<g fill="#B4A169" fill-rule="evenodd">
<path d="M 653 594 L 607 578 L 576 618 L 546 651 L 482 711 L 509 700 L 536 683 Z"/>
<path d="M 170 594 L 228 636 L 286 682 L 320 703 L 342 711 L 309 682 L 269 642 L 240 609 L 217 578 Z"/>
<path d="M 242 533 L 248 545 L 265 569 L 300 610 L 352 661 L 412 711 L 466 666 L 516 618 L 549 581 L 581 536 L 601 422 L 551 457 L 412 522 L 274 458 L 223 422 Z M 284 537 L 395 615 L 394 663 L 360 633 L 307 579 L 285 552 Z M 540 536 L 538 553 L 520 575 L 471 626 L 430 663 L 429 614 Z M 550 488 L 548 500 L 543 505 L 429 583 L 430 542 L 545 488 Z M 274 488 L 285 491 L 394 542 L 395 583 L 389 581 L 278 503 Z"/>
<path d="M 243 364 L 243 381 L 274 403 L 274 384 L 259 373 L 260 361 L 411 432 L 563 361 L 565 362 L 565 373 L 550 383 L 550 403 L 581 381 L 579 352 L 570 319 L 558 294 L 545 275 L 522 251 L 500 235 L 479 224 L 448 214 L 444 216 L 436 240 L 428 275 L 422 320 L 420 362 L 403 361 L 402 326 L 395 272 L 386 235 L 379 215 L 376 214 L 352 221 L 325 234 L 304 249 L 287 265 L 268 290 L 256 313 L 248 336 Z"/>
</g>
<g fill="#000000" fill-rule="evenodd">
<path d="M 284 538 L 286 552 L 308 579 L 360 632 L 394 662 L 394 615 Z"/>
<path d="M 540 537 L 430 614 L 430 662 L 471 625 L 512 583 L 537 553 Z"/>
<path d="M 549 488 L 430 543 L 430 583 L 547 500 Z"/>
<path d="M 275 488 L 278 502 L 394 583 L 394 543 Z"/>
<path d="M 685 486 L 685 496 L 688 496 L 688 493 L 691 494 L 693 491 L 694 496 L 696 496 L 696 486 L 693 486 L 691 489 Z"/>
<path d="M 123 70 L 121 101 L 130 135 L 139 152 L 153 171 L 184 199 L 182 200 L 163 192 L 140 176 L 144 196 L 154 218 L 165 234 L 193 260 L 196 261 L 214 232 L 241 206 L 271 189 L 287 184 L 291 185 L 261 207 L 227 244 L 211 269 L 200 292 L 191 318 L 186 342 L 168 361 L 196 521 L 50 573 L 89 594 L 145 630 L 239 701 L 325 778 L 412 870 L 454 823 L 510 767 L 593 694 L 680 629 L 723 601 L 773 573 L 627 521 L 655 361 L 637 341 L 633 320 L 624 293 L 612 268 L 598 246 L 580 224 L 549 196 L 528 182 L 500 168 L 493 148 L 479 121 L 467 104 L 451 88 L 428 74 L 401 67 L 365 69 L 322 84 L 249 125 L 231 130 L 207 131 L 180 125 L 157 113 L 135 92 Z M 412 748 L 421 768 L 432 777 L 446 782 L 434 786 L 424 793 L 417 802 L 412 816 L 404 798 L 393 788 L 378 782 L 396 774 L 406 763 Z M 654 594 L 536 684 L 497 707 L 481 711 L 545 651 L 575 618 L 607 577 Z M 169 594 L 217 577 L 241 609 L 270 642 L 309 681 L 343 711 L 340 712 L 322 705 L 286 683 Z M 222 422 L 225 422 L 274 457 L 412 521 L 551 456 L 600 421 L 602 422 L 582 536 L 550 581 L 517 618 L 466 667 L 412 712 L 352 662 L 299 610 L 276 584 L 247 545 L 241 533 Z M 527 401 L 507 427 L 445 438 L 524 400 Z M 296 400 L 379 438 L 376 439 L 316 427 Z M 242 364 L 247 336 L 255 313 L 267 290 L 286 265 L 304 248 L 325 233 L 352 220 L 376 213 L 380 215 L 396 272 L 403 326 L 404 361 L 420 361 L 421 320 L 427 275 L 443 216 L 445 213 L 479 223 L 500 234 L 522 250 L 546 275 L 559 294 L 571 319 L 580 352 L 582 381 L 550 404 L 549 383 L 564 373 L 563 362 L 411 433 L 260 362 L 260 373 L 275 384 L 274 404 L 242 381 Z"/>
</g>
</svg>